<svg version="1.1" id="Layer_1" xmlns="http://www.w3.org/2000/svg" xmlns:xlink="http://www.w3.org/1999/xlink" x="0px" y="0px"
	 width="100%" viewBox="0 0 204 181" enable-background="new 0 0 204 181" xml:space="preserve">
<path fill="#FEFEFE" opacity="1.000000" stroke="none" 
	d="
M115.000000,182.000000 
	C76.691246,182.000000 38.882492,182.000000 1.036870,182.000000 
	C1.036870,121.730461 1.036870,61.460899 1.036870,1.095667 
	C68.891922,1.095667 136.784027,1.095667 204.838074,1.095667 
	C204.838074,61.332989 204.838074,121.666451 204.838074,182.000000 
	C175.127853,182.000000 145.313934,182.000000 115.000000,182.000000 
M102.681854,134.362961 
	C102.681854,134.362961 102.632812,134.353424 102.592262,135.370834 
	C102.592262,142.127228 102.592262,148.883621 102.592262,156.099792 
	C110.113190,156.099792 117.186829,156.099792 124.703316,155.909683 
	C124.969193,155.656845 125.031990,155.360977 124.876617,154.759033 
	C124.876617,154.759033 125.005905,154.529480 125.921677,154.326935 
	C132.152878,154.326935 138.384079,154.326935 145.247803,154.326935 
	C145.247803,147.373413 145.247803,141.133743 145.893158,134.822266 
	C146.325043,134.771896 146.756927,134.721527 147.067719,135.642365 
	C147.088272,142.087540 147.108826,148.532700 147.093185,155.539352 
	C147.389160,155.715607 147.685150,155.891876 148.916840,156.164352 
	C155.510925,156.164352 162.104996,156.164352 168.790405,156.164352 
	C168.790405,148.593857 168.790405,141.691467 168.790405,134.641144 
	C161.386124,134.641144 154.281433,134.641144 146.601776,134.208725 
	C146.372162,134.144257 146.142548,134.079773 146.160828,133.532303 
	C146.156448,133.171722 146.152084,132.811142 147.063843,132.417267 
	C153.636215,132.417267 160.208588,132.417267 167.132797,132.417267 
	C167.132797,125.531082 167.132797,119.286125 167.487457,112.781334 
	C167.487457,112.781334 167.750290,112.428886 168.542831,112.256187 
	C168.729797,107.164902 169.066177,102.072754 169.036850,96.982719 
	C169.023422,94.650925 168.290756,92.323265 167.905716,89.431503 
	C167.649170,88.966789 167.392624,88.502075 167.228195,87.099365 
	C167.171204,81.020050 167.114227,74.940735 167.319763,68.490845 
	C167.319763,68.490845 167.516617,68.081573 168.333908,67.995995 
	C168.676147,60.850674 169.018402,53.705353 169.387680,45.995644 
	C161.184586,45.995644 154.053604,45.995644 146.885345,45.322392 
	C146.994614,44.888878 147.103882,44.455368 148.121628,44.086681 
	C154.349869,44.086681 160.578110,44.086681 166.801834,44.086681 
	C166.801834,36.456760 166.801834,29.486050 166.801834,22.184490 
	C160.088623,22.184490 153.825790,22.116156 147.568039,22.263733 
	C146.704498,22.284100 145.866165,23.374077 144.085175,24.111788 
	C137.797440,24.132092 131.509720,24.152395 124.521858,24.060577 
	C124.050087,24.043184 123.578323,24.025791 122.819939,23.247328 
	C116.202385,22.994110 109.584831,22.740894 102.350555,22.333979 
	C101.580139,22.986523 100.809715,23.639065 99.105492,24.168509 
	C92.710030,24.332216 86.314560,24.495922 79.306213,24.107548 
	C76.136482,21.358698 58.970577,21.246035 54.974117,24.133657 
	C48.777050,24.133657 42.579983,24.133657 35.842331,24.133657 
	C35.842331,31.117514 35.842331,37.498909 35.084240,44.175972 
	C34.614677,51.285488 34.145115,58.395004 33.644527,65.974289 
	C41.791882,65.974289 48.909351,65.974289 56.136639,66.606308 
	C56.122768,67.032799 56.108898,67.459297 55.175262,68.139122 
	C48.917572,68.139122 42.659882,68.139122 36.089558,68.139122 
	C36.089558,75.209137 36.089558,81.649414 35.896656,88.420784 
	C35.896656,88.420784 35.751442,88.775375 34.922832,88.913078 
	C34.534470,95.862152 34.146103,102.811218 33.737305,110.125893 
	C41.943577,110.125893 49.180885,110.125893 56.739819,110.087662 
	C56.739819,110.087662 57.059711,110.036957 56.950294,110.514206 
	C56.950294,110.514206 57.086758,110.984436 56.943501,111.484993 
	C56.910030,111.655289 56.876564,111.825577 56.418297,112.067085 
	C56.124481,112.161552 55.922001,112.352730 54.899479,112.650642 
	C48.781525,112.650642 42.663574,112.650642 35.933022,112.650642 
	C35.933022,119.461990 35.933022,125.748528 35.226688,132.401489 
	C34.707722,139.590103 34.188755,146.778732 33.665745,154.023315 
	C41.830711,154.023315 48.732323,154.023315 56.078560,154.023315 
	C56.078560,147.301239 56.078560,140.862122 56.473629,134.120392 
	C56.473629,134.120392 56.839813,133.790115 57.431381,133.943268 
	C57.634899,133.951660 57.838421,133.960052 58.053631,134.909775 
	C58.053631,141.969299 58.053631,149.028824 58.053631,156.229919 
	C64.609932,156.229919 70.428520,156.322189 76.240463,156.166367 
	C77.731087,156.126419 79.200729,155.303497 81.502625,154.638657 
	C86.153282,154.616730 90.829140,154.284943 95.447487,154.660446 
	C100.024712,155.032639 101.203056,153.229156 100.918594,148.961853 
	C100.599144,144.169693 100.915344,139.335159 101.688126,134.331177 
	C101.939766,134.313431 102.191414,134.295670 102.544823,134.372772 
	C102.544823,134.372772 102.679596,134.407349 102.681854,134.362961 
z"/>
<path fill="#E92FAA" opacity="1.000000" stroke="none" 
	d="
M147.129364,154.977875 
	C147.108826,148.532700 147.088272,142.087540 147.119690,135.148636 
	C147.171677,134.654907 147.176727,134.641144 147.176727,134.641144 
	C154.281433,134.641144 161.386124,134.641144 168.790405,134.641144 
	C168.790405,141.691467 168.790405,148.593857 168.790405,156.164352 
	C162.104996,156.164352 155.510925,156.164352 148.362030,155.895966 
	C147.633881,155.356110 147.407928,155.139542 147.129364,154.977875 
z"/>
<path fill="#F3C43C" opacity="1.000000" stroke="none" 
	d="
M55.878201,23.953787 
	C58.970577,21.246035 76.136482,21.358698 79.392960,24.666080 
	C79.426155,31.604044 79.372597,37.983475 78.830048,44.231335 
	C71.537651,44.040714 64.734245,43.981663 57.971268,43.460609 
	C58.016209,37.779690 58.114445,32.557701 57.944069,27.344490 
	C57.911034,26.333559 56.830158,25.356874 56.138824,24.266224 
	C56.045025,24.168055 55.878201,23.953787 55.878201,23.953787 
z"/>
<path fill="#E933AB" opacity="1.000000" stroke="none" 
	d="
M146.922623,45.995644 
	C154.053604,45.995644 161.184586,45.995644 169.387680,45.995644 
	C169.018402,53.705353 168.676147,60.850674 167.741516,67.636581 
	C165.699005,66.850739 164.260132,66.106865 162.796722,66.055016 
	C157.583206,65.870285 152.361343,65.920929 147.106750,65.425720 
	C147.041351,58.624359 147.011826,52.279732 146.985138,45.967735 
	C146.987946,46.000370 146.922623,45.995644 146.922623,45.995644 
z"/>
<path fill="#2C32F5" opacity="1.000000" stroke="none" 
	d="
M56.078560,134.423019 
	C56.078560,140.862122 56.078560,147.301239 56.078560,154.023315 
	C48.732323,154.023315 41.830711,154.023315 33.665745,154.023315 
	C34.188755,146.778732 34.707722,139.590103 35.632851,132.352905 
	C36.039017,132.304337 36.173923,132.560364 36.250229,132.921204 
	C37.870628,133.540131 39.408054,133.963257 40.960041,134.025955 
	C45.996674,134.229401 51.038647,134.300781 56.078560,134.423019 
z"/>
<path fill="#F0C036" opacity="1.000000" stroke="none" 
	d="
M56.026821,65.974289 
	C48.909351,65.974289 41.791882,65.974289 33.644527,65.974289 
	C34.145115,58.395004 34.614677,51.285488 35.548832,44.111610 
	C36.013424,44.047249 36.167557,44.229973 36.123665,44.657784 
	C37.539131,45.476460 38.987370,46.149113 40.459862,46.207249 
	C45.614799,46.410763 50.778107,46.402351 55.991539,46.906677 
	C56.023594,53.574501 56.002346,59.810081 55.979294,66.019241 
	C55.977489,65.992813 56.026821,65.974289 56.026821,65.974289 
z"/>
<path fill="#F3C338" opacity="1.000000" stroke="none" 
	d="
M145.016159,23.968872 
	C145.866165,23.374077 146.704498,22.284100 147.568039,22.263733 
	C153.825790,22.116156 160.088623,22.184490 166.801834,22.184490 
	C166.801834,29.486050 166.801834,36.456760 166.801834,44.086681 
	C160.578110,44.086681 154.349869,44.086681 147.597321,43.590946 
	C147.056580,37.954479 147.135208,32.810299 146.949203,27.675711 
	C146.908508,26.552113 145.924301,25.462692 145.286743,24.258766 
	C145.198868,24.159998 145.016159,23.968872 145.016159,23.968872 
z"/>
<path fill="#E933AC" opacity="1.000000" stroke="none" 
	d="
M167.884293,89.993736 
	C168.290756,92.323265 169.023422,94.650925 169.036850,96.982719 
	C169.066177,102.072754 168.729797,107.164902 168.061462,112.004532 
	C166.204361,111.224823 164.845337,110.297569 163.449936,110.239113 
	C157.964050,110.009293 152.466721,110.052963 147.017365,109.528534 
	C147.377289,102.717819 147.693466,96.373672 148.472839,90.103317 
	C155.252136,90.115990 161.568207,90.054863 167.884293,89.993736 
z"/>
<path fill="#2E34F5" opacity="1.000000" stroke="none" 
	d="
M80.680008,154.840286 
	C79.200729,155.303497 77.731087,156.126419 76.240463,156.166367 
	C70.428520,156.322189 64.609932,156.229919 58.053631,156.229919 
	C58.053631,149.028824 58.053631,141.969299 58.030064,134.463959 
	C58.006496,134.018158 57.950520,133.992157 58.406616,134.124237 
	C65.267784,134.342468 71.672852,134.428619 78.120300,134.949463 
	C78.165512,140.529068 78.049599,145.678833 78.259720,150.815292 
	C78.308563,152.009293 79.467613,153.157867 80.243950,154.469788 
	C80.372070,154.612244 80.680008,154.840286 80.680008,154.840286 
z"/>
<path fill="#3036F6" opacity="1.000000" stroke="none" 
	d="
M102.967278,22.487679 
	C109.584831,22.740894 116.202385,22.994110 122.845306,24.081427 
	C122.893303,31.185724 122.915924,37.455925 122.484711,43.836960 
	C115.671600,43.923943 109.312317,43.900089 102.970016,43.415749 
	C102.980415,36.132740 102.973846,29.310209 102.967278,22.487679 
z"/>
<path fill="#EABD37" opacity="1.000000" stroke="none" 
	d="
M100.955002,134.519058 
	C100.915344,139.335159 100.599144,144.169693 100.918594,148.961853 
	C101.203056,153.229156 100.024712,155.032639 95.447487,154.660446 
	C90.829140,154.284943 86.153282,154.616730 81.091316,154.739471 
	C80.680008,154.840286 80.372070,154.612244 80.354797,154.067474 
	C80.337532,147.191177 80.337532,140.859665 80.337532,134.090027 
	C87.547501,134.090027 93.792099,134.090027 100.264267,134.201569 
	C100.646225,134.381775 100.800613,134.450409 100.955002,134.519058 
z"/>
<path fill="#2E34F2" opacity="1.000000" stroke="none" 
	d="
M124.260460,156.099792 
	C117.186829,156.099792 110.113190,156.099792 102.592262,156.099792 
	C102.592262,148.883621 102.592262,142.127228 103.099373,134.980911 
	C109.809303,134.484192 116.012131,134.377396 122.481583,134.309799 
	C123.098381,134.302780 123.448532,134.256577 123.814926,134.217087 
	C123.831154,134.223801 123.831688,134.190369 123.796280,134.352539 
	C123.760880,134.514694 123.781876,134.846008 123.455139,135.133026 
	C123.037193,140.852386 122.872650,146.285583 122.933571,151.716232 
	C122.942749,152.534454 124.004242,153.340866 124.668045,154.266937 
	C124.757133,154.381119 125.005905,154.529480 125.005905,154.529480 
	C125.005905,154.529480 124.876617,154.759033 124.715698,155.026047 
	C124.363113,155.527786 124.265007,155.796707 124.260460,156.099792 
z"/>
<path fill="#F3C337" opacity="1.000000" stroke="none" 
	d="
M56.418190,110.125893 
	C49.180885,110.125893 41.943577,110.125893 33.737305,110.125893 
	C34.146103,102.811218 34.534470,95.862152 35.441200,89.273193 
	C37.389439,90.049332 38.807331,90.769905 40.251328,90.826691 
	C45.453690,91.031250 50.664848,91.012039 55.940704,91.535095 
	C56.145214,98.037193 56.281704,104.081543 56.418190,110.125893 
z"/>
<path fill="#353BF6" opacity="1.000000" stroke="none" 
	d="
M79.319038,44.362904 
	C79.372597,37.983475 79.426155,31.604044 79.699402,24.942122 
	C86.314560,24.495922 92.710030,24.332216 99.567825,24.678898 
	C100.014572,31.430532 99.998985,37.671776 99.518646,43.957870 
	C92.668381,43.971447 86.282867,43.940178 79.815125,44.101837 
	C79.732903,44.294769 79.319038,44.362904 79.319038,44.362904 
z"/>
<path fill="#F3BF35" opacity="1.000000" stroke="none" 
	d="
M123.781876,134.846008 
	C123.781876,134.846008 123.760880,134.514694 124.276199,134.347809 
	C131.558289,134.152985 138.325058,134.125076 145.087158,134.304932 
	C145.082489,134.512711 145.247803,134.894089 145.247803,134.894089 
	C145.247803,141.133743 145.247803,147.373413 145.247803,154.326935 
	C138.384079,154.326935 132.152878,154.326935 125.463791,154.428207 
	C125.005905,154.529480 124.757133,154.381119 124.790733,153.801498 
	C124.850655,151.402710 125.002480,149.574905 124.878250,147.766083 
	C124.582138,143.454620 124.155685,139.152130 123.781876,134.846008 
z"/>
<path fill="#2D33F6" opacity="1.000000" stroke="none" 
	d="
M36.089558,88.089699 
	C36.089558,81.649414 36.089558,75.209137 36.089558,68.139122 
	C42.659882,68.139122 48.917572,68.139122 55.724209,68.123131 
	C56.273155,68.107140 56.436722,68.339462 56.303986,68.769638 
	C56.066669,75.609138 55.962093,82.018478 55.403858,88.362061 
	C48.663315,88.227440 42.376438,88.158569 36.089558,88.089699 
z"/>
<path fill="#2D33F6" opacity="1.000000" stroke="none" 
	d="
M35.927879,43.963776 
	C35.842331,37.498909 35.842331,31.117514 35.842331,24.133657 
	C42.579983,24.133657 48.777050,24.133657 55.426159,24.043722 
	C55.878201,23.953787 56.045025,24.168055 56.066528,24.705910 
	C56.088036,31.348478 56.088036,37.453190 56.088036,44.229973 
	C49.050564,44.229973 42.609062,44.229973 36.167557,44.229973 
	C36.167557,44.229973 36.013424,44.047249 35.927879,43.963776 
z"/>
<path fill="#E932AB" opacity="1.000000" stroke="none" 
	d="
M125.221985,24.172699 
	C131.509720,24.152395 137.797440,24.132092 144.550659,24.040329 
	C145.016159,23.968872 145.198868,24.159998 145.168365,24.686661 
	C145.137863,31.384512 145.137863,37.555702 145.137863,43.828117 
	C137.706635,43.828117 131.293839,43.828117 124.894821,43.372673 
	C125.013062,36.669056 125.117523,30.420877 125.221985,24.172699 
z"/>
<path fill="#2B31F6" opacity="1.000000" stroke="none" 
	d="
M167.132797,113.041161 
	C167.132797,119.286125 167.132797,125.531082 167.132797,132.417267 
	C160.208588,132.417267 153.636215,132.417267 146.565216,132.324921 
	C146.066605,132.232574 145.934555,132.042160 145.967041,131.652557 
	C145.978165,130.226547 145.956787,129.190140 146.256744,127.864662 
	C146.845184,122.847321 147.112274,118.119049 147.399124,113.041161 
	C154.242172,113.041161 160.687485,113.041161 167.132797,113.041161 
z"/>
<path fill="#E82FAA" opacity="1.000000" stroke="none" 
	d="
M35.986019,132.169708 
	C35.933022,125.748528 35.933022,119.461990 35.933022,112.650642 
	C42.663574,112.650642 48.781525,112.650642 55.420128,113.139206 
	C55.950699,119.806999 55.960625,125.986229 55.504341,132.133728 
	C48.750065,132.254807 42.461994,132.407593 36.173923,132.560364 
	C36.173923,132.560364 36.039017,132.304337 35.986019,132.169708 
z"/>
<path fill="#F2BE34" opacity="1.000000" stroke="none" 
	d="
M167.057251,68.861420 
	C167.114227,74.940735 167.171204,81.020050 166.704010,87.586510 
	C160.431442,88.153976 154.683060,88.234299 148.655518,88.228600 
	C147.990280,88.090179 147.604202,88.037773 147.144958,87.523964 
	C147.074081,80.965050 147.076370,74.867546 147.541595,68.773560 
	C154.355453,68.805199 160.706345,68.833305 167.057251,68.861420 
z"/>
<path fill="#2E0AB1" opacity="1.000000" stroke="none" 
	d="
M167.310120,112.911247 
	C160.687485,113.041161 154.242172,113.041161 147.399124,113.041161 
	C147.112274,118.119049 146.845184,122.847321 145.909119,127.593750 
	C145.109802,122.748268 144.979446,117.884621 144.990921,112.729156 
	C145.504395,111.673599 145.876053,110.909874 146.432663,110.125107 
	C146.617615,110.104057 146.973633,109.995094 146.973633,109.995094 
	C152.466721,110.052963 157.964050,110.009293 163.449936,110.239113 
	C164.845337,110.297569 166.204361,111.224823 167.665192,112.090881 
	C167.750290,112.428886 167.487457,112.781334 167.310120,112.911247 
z"/>
<path fill="#E83036" opacity="1.000000" stroke="none" 
	d="
M124.881042,43.828117 
	C131.293839,43.828117 137.706635,43.828117 145.137863,43.828117 
	C145.137863,37.555702 145.137863,31.384512 145.256241,24.785427 
	C145.924301,25.462692 146.908508,26.552113 146.949203,27.675711 
	C147.135208,32.810299 147.056580,37.954479 147.143097,43.558533 
	C147.103882,44.455368 146.994614,44.888878 146.903992,45.659019 
	C146.922623,45.995644 146.987946,46.000370 146.659256,45.968338 
	C145.904602,46.015633 145.478638,46.094963 144.585785,46.110123 
	C137.779312,46.015316 131.439743,45.984684 124.972626,45.729763 
	C124.576759,45.293659 124.308449,45.081844 124.091415,44.636421 
	C124.304108,44.102444 124.550224,43.910881 124.881042,43.828117 
z"/>
<path fill="#281BF6" opacity="1.000000" stroke="none" 
	d="
M99.983398,43.913021 
	C99.998985,37.671776 100.014572,31.430532 100.034729,24.740448 
	C100.809715,23.639065 101.580139,22.986523 102.658920,22.410828 
	C102.973846,29.310209 102.980415,36.132740 102.988708,43.493713 
	C102.990425,44.032154 103.039200,44.184898 102.744400,44.168579 
	C102.280136,44.498566 102.110664,44.844872 101.662582,45.093071 
	C100.917107,44.634319 100.450249,44.273670 99.983398,43.913021 
z"/>
<path fill="#E83C20" opacity="1.000000" stroke="none" 
	d="
M167.188507,68.676132 
	C160.706345,68.833305 154.355453,68.805199 147.370941,68.623840 
	C146.307541,68.313301 145.877747,68.156021 145.356888,67.748291 
	C145.222443,67.325691 145.179062,67.153542 145.285202,66.730415 
	C145.315781,66.325226 145.196854,66.171005 145.042053,66.021667 
	C145.006195,66.026558 145.019928,66.097633 145.372314,66.250031 
	C146.197357,66.229103 146.669998,66.055786 147.142639,65.882462 
	C152.361343,65.920929 157.583206,65.870285 162.796722,66.055016 
	C164.260132,66.106865 165.699005,66.850739 167.332886,67.679375 
	C167.516617,68.081573 167.319763,68.490845 167.188507,68.676132 
z"/>
<path fill="#454B14" opacity="1.000000" stroke="none" 
	d="
M56.843102,111.995872 
	C56.876564,111.825577 56.910030,111.655289 57.263317,111.186806 
	C57.721367,110.604500 57.859596,110.320381 57.969719,110.032303 
	C57.941612,110.028336 57.929295,109.972916 58.389130,110.095375 
	C65.195938,110.274193 71.542915,110.330559 77.880852,110.626297 
	C78.115852,111.270920 78.359894,111.676186 78.641876,112.305801 
	C78.679810,112.530151 78.808128,112.966759 78.619843,112.917679 
	C78.431549,112.868591 78.079292,113.034012 77.610428,112.951202 
	C70.723976,112.917885 64.306389,112.967377 57.684464,112.880264 
	C57.247898,112.511345 57.035557,112.262085 56.843102,111.995872 
z"/>
<path fill="#374315" opacity="1.000000" stroke="none" 
	d="
M35.993107,88.255241 
	C42.376438,88.158569 48.663315,88.227440 55.393066,88.602249 
	C55.880302,89.232872 55.995392,89.530174 56.169624,89.998352 
	C56.158043,90.196594 56.264694,90.579163 56.171616,90.707588 
	C56.078537,90.836014 55.872684,91.077362 55.872684,91.077362 
	C50.664848,91.012039 45.453690,91.031250 40.251328,90.826691 
	C38.807331,90.769905 37.389439,90.049332 35.855507,89.204338 
	C35.751442,88.775375 35.896656,88.420784 35.993107,88.255241 
z"/>
<path fill="#3F1C93" opacity="1.000000" stroke="none" 
	d="
M101.321564,134.425110 
	C100.800613,134.450409 100.646225,134.381775 100.242104,133.879089 
	C99.988663,133.014343 99.984962,132.583649 100.269913,131.834137 
	C100.655991,125.263664 100.753426,119.011986 100.877625,112.519348 
	C100.904373,112.278381 100.791000,111.806931 100.942413,111.591843 
	C101.608589,110.923676 102.123344,110.470589 102.747589,110.319061 
	C102.883293,111.249687 102.909515,111.878754 102.916290,113.006607 
	C102.865906,119.631439 102.834969,125.757477 102.604179,131.997833 
	C102.109352,132.348587 102.067780,132.623276 102.244614,133.280884 
	C102.287430,133.843018 102.365250,134.060471 102.443062,134.277908 
	C102.191414,134.295670 101.939766,134.313431 101.321564,134.425110 
z"/>
<path fill="#E83176" opacity="1.000000" stroke="none" 
	d="
M56.184090,67.996460 
	C56.108898,67.459297 56.122768,67.032799 56.081730,66.290298 
	C56.026821,65.974289 55.977489,65.992813 56.299637,66.064339 
	C57.050415,66.094116 57.479042,66.052376 58.383904,66.006546 
	C65.375130,65.971138 71.890121,65.939819 78.629013,65.921501 
	C78.852913,65.934509 79.286407,66.072487 79.192429,66.351181 
	C78.879837,67.165337 78.661217,67.700806 77.949745,68.176437 
	C70.891586,68.088387 64.326263,68.060173 57.530495,68.053551 
	C56.982727,68.066910 56.694954,68.155014 56.436722,68.339462 
	C56.436722,68.339462 56.273155,68.107140 56.184090,67.996460 
z"/>
<path fill="#E83036" opacity="1.000000" stroke="none" 
	d="
M145.091827,134.097153 
	C138.325058,134.125076 131.558289,134.152985 124.311600,134.185638 
	C123.831688,134.190369 123.831154,134.223801 123.897461,133.888184 
	C124.275764,133.003250 124.587753,132.453934 125.373260,131.955063 
	C132.542694,132.017731 139.238632,132.029938 145.934555,132.042160 
	C145.934555,132.042160 146.066605,132.232574 146.107162,132.341568 
	C146.152084,132.811142 146.156448,133.171722 145.828796,133.764771 
	C145.496765,133.997223 145.091827,134.097153 145.091827,134.097153 
z"/>
<path fill="#E72F30" opacity="1.000000" stroke="none" 
	d="
M56.630699,112.031479 
	C57.035557,112.262085 57.247898,112.511345 57.729752,113.344902 
	C58.043301,119.996559 58.107216,126.046982 58.072884,132.406921 
	C57.966595,133.141678 57.958557,133.566925 57.950520,133.992157 
	C57.950520,133.992157 58.006496,134.018158 58.024216,133.993301 
	C57.838421,133.960052 57.634899,133.951660 57.017063,133.668335 
	C56.392010,132.984100 56.181278,132.574768 55.970551,132.165451 
	C55.960625,125.986229 55.950699,119.806999 55.875816,113.134201 
	C55.922001,112.352730 56.124481,112.161552 56.630699,112.031479 
z"/>
<path fill="#440AA9" opacity="1.000000" stroke="none" 
	d="
M55.504341,132.133728 
	C56.181278,132.574768 56.392010,132.984100 56.721279,133.591766 
	C56.839813,133.790115 56.473629,134.120392 56.276093,134.271698 
	C51.038647,134.300781 45.996674,134.229401 40.960041,134.025955 
	C39.408054,133.963257 37.870628,133.540131 36.250229,132.921204 
	C42.461994,132.407593 48.750065,132.254807 55.504341,132.133728 
z"/>
<path fill="#E8CBF1" opacity="1.000000" stroke="none" 
	d="
M124.894821,43.372673 
	C124.550224,43.910881 124.304108,44.102444 123.860985,44.722282 
	C123.579277,45.041752 123.103165,45.162434 123.058777,44.803726 
	C122.989098,44.205387 122.963821,43.965755 122.938553,43.726124 
	C122.915924,37.455925 122.893303,31.185724 122.988617,24.461960 
	C123.578323,24.025791 124.050087,24.043184 124.871918,24.116638 
	C125.117523,30.420877 125.013062,36.669056 124.894821,43.372673 
z"/>
<path fill="#FAE6C4" opacity="1.000000" stroke="none" 
	d="
M148.934692,88.314621 
	C154.683060,88.234299 160.431442,88.153976 166.657959,88.055511 
	C167.392624,88.502075 167.649170,88.966789 167.895004,89.712616 
	C161.568207,90.054863 155.252136,90.115990 148.551331,89.869934 
	C148.422653,89.146706 148.678680,88.730659 148.934692,88.314621 
z"/>
<path fill="#FEF9EA" opacity="1.000000" stroke="none" 
	d="
M56.579002,110.106781 
	C56.281704,104.081543 56.145214,98.037193 55.940704,91.535103 
	C55.872684,91.077362 56.078537,90.836014 56.584152,90.833740 
	C57.369606,97.211945 57.649448,103.592430 57.929295,109.972916 
	C57.929295,109.972916 57.941612,110.028336 57.735210,110.026459 
	C57.528809,110.024574 57.059711,110.036957 57.059711,110.036957 
	C57.059711,110.036957 56.739819,110.087662 56.579002,110.106781 
z"/>
<path fill="#C4C5F7" opacity="1.000000" stroke="none" 
	d="
M122.214951,134.270630 
	C116.012131,134.377396 109.809303,134.484192 103.119644,134.472198 
	C102.632812,134.353424 102.681854,134.362961 102.792480,134.237427 
	C102.903099,134.111908 103.130257,133.823929 103.586067,133.868225 
	C110.099571,134.031876 116.157257,134.151245 122.214951,134.270630 
z"/>
<path fill="#EE61BF" opacity="1.000000" stroke="none" 
	d="
M145.087158,134.304932 
	C145.091827,134.097153 145.496765,133.997223 145.704865,134.006256 
	C146.142548,134.079773 146.372162,134.144257 146.889252,134.424927 
	C147.176727,134.641144 147.171677,134.654907 147.180237,134.663025 
	C146.756927,134.721527 146.325043,134.771896 145.570480,134.858185 
	C145.247803,134.894089 145.082489,134.512711 145.087158,134.304932 
z"/>
<path fill="#C4C5F7" opacity="1.000000" stroke="none" 
	d="
M102.493942,134.325348 
	C102.365250,134.060471 102.287430,133.843018 102.415901,133.399750 
	C102.828125,133.362030 102.997475,133.578690 103.130257,133.823929 
	C103.130257,133.823929 102.903099,134.111908 102.791351,134.259628 
	C102.679596,134.407349 102.544823,134.372772 102.493942,134.325348 
z"/>
<path fill="#172A58" opacity="1.000000" stroke="none" 
	d="
M57.005005,110.275581 
	C57.059711,110.036957 57.528809,110.024574 57.763317,110.030426 
	C57.859596,110.320381 57.721367,110.604500 57.334946,110.936523 
	C57.086758,110.984436 56.950294,110.514206 57.005005,110.275581 
z"/>
<path fill="#C4C5F7" opacity="1.000000" stroke="none" 
	d="
M124.481888,156.004730 
	C124.265007,155.796707 124.363113,155.527786 124.723236,155.157562 
	C125.031990,155.360977 124.969193,155.656845 124.481888,156.004730 
z"/>
<path fill="#EE61BF" opacity="1.000000" stroke="none" 
	d="
M147.111267,155.258606 
	C147.407928,155.139542 147.633881,155.356110 147.894180,155.847839 
	C147.685150,155.891876 147.389160,155.715607 147.111267,155.258606 
z"/>
<path fill="#172B23" opacity="1.000000" stroke="none" 
	d="
M36.123665,44.657784 
	C42.609062,44.229973 49.050564,44.229973 56.088036,44.229973 
	C56.088036,37.453190 56.088036,31.348478 56.160332,24.804079 
	C56.830158,25.356874 57.911034,26.333559 57.944069,27.344490 
	C58.114445,32.557701 58.016209,37.779690 57.701500,43.556171 
	C57.331238,44.416710 57.271175,44.719692 57.107170,45.343178 
	C56.648228,45.933926 56.293228,46.204178 55.938232,46.474434 
	C50.778107,46.402351 45.614799,46.410763 40.459862,46.207249 
	C38.987370,46.149113 37.539131,45.476460 36.123665,44.657784 
z"/>
<path fill="#FEF9EA" opacity="1.000000" stroke="none" 
	d="
M57.211113,45.022675 
	C57.271175,44.719692 57.331238,44.416710 57.661064,44.018166 
	C64.734245,43.981663 71.537651,44.040714 78.830048,44.231335 
	C79.319038,44.362904 79.732903,44.294769 79.543564,44.237576 
	C79.299660,44.370991 79.245094,44.561596 79.027626,45.018383 
	C78.634354,45.625381 78.403992,45.966202 77.696129,46.270370 
	C70.850449,46.189415 64.482269,46.145103 58.016319,45.880348 
	C57.748859,45.374084 57.513046,45.161674 57.211113,45.022675 
z"/>
<path fill="#FDF7E8" opacity="1.000000" stroke="none" 
	d="
M147.106750,65.425728 
	C146.669998,66.055786 146.197357,66.229103 145.412888,65.776222 
	C145.084930,58.824776 145.068802,52.499531 145.052673,46.174294 
	C145.478638,46.094963 145.904602,46.015633 146.656433,45.935707 
	C147.011826,52.279732 147.041351,58.624359 147.106750,65.425728 
z"/>
<path fill="#F9F5ED" opacity="1.000000" stroke="none" 
	d="
M57.107170,45.343178 
	C57.513046,45.161674 57.748859,45.374084 57.983795,46.340508 
	C58.001915,53.350956 57.954792,59.680790 57.907669,66.010628 
	C57.479042,66.052376 57.050415,66.094116 56.301445,66.090759 
	C56.002346,59.810081 56.023594,53.574501 55.991539,46.906677 
	C56.293228,46.204178 56.648228,45.933926 57.107170,45.343178 
z"/>
<path fill="#F7E8C1" opacity="1.000000" stroke="none" 
	d="
M148.655518,88.228607 
	C148.678680,88.730659 148.422653,89.146706 148.088135,89.796143 
	C147.693466,96.373672 147.377289,102.717819 147.017365,109.528534 
	C146.973633,109.995094 146.617615,110.104057 146.120209,110.080444 
	C145.413025,110.044785 145.203262,110.032745 144.998596,109.550385 
	C145.003983,102.898338 145.004272,96.716606 145.287277,90.341637 
	C146.119370,89.427391 146.668747,88.706383 147.218124,87.985367 
	C147.604202,88.037773 147.990280,88.090179 148.655518,88.228607 
z"/>
<path fill="#1E3045" opacity="1.000000" stroke="none" 
	d="
M99.981262,132.152954 
	C99.984962,132.583649 99.988663,133.014343 100.014542,133.767532 
	C93.792099,134.090027 87.547501,134.090027 80.337532,134.090027 
	C80.337532,140.859665 80.337532,147.191177 80.226685,153.925018 
	C79.467613,153.157867 78.308563,152.009293 78.259720,150.815292 
	C78.049599,145.678833 78.165512,140.529068 78.422142,134.732635 
	C78.830040,133.371597 78.978477,132.662064 79.408501,131.995697 
	C80.063324,131.981064 80.436569,131.923264 81.287392,131.936935 
	C87.837074,132.056580 93.909164,132.104767 99.981262,132.152954 
z"/>
<path fill="#FCF0CF" opacity="1.000000" stroke="none" 
	d="
M79.126907,131.952515 
	C78.978477,132.662064 78.830040,133.371597 78.379768,134.297958 
	C71.672852,134.428619 65.267784,134.342468 58.406616,134.124237 
	C57.958557,133.566925 57.966595,133.141678 58.528755,132.412994 
	C65.310928,132.109558 71.538979,132.109558 78.079292,132.109558 
	C78.079292,125.227509 78.079292,119.130760 78.079292,113.034012 
	C78.079292,113.034012 78.431549,112.868591 78.662308,113.385040 
	C78.971008,119.918495 79.048958,125.935501 79.126907,131.952515 
z"/>
<path fill="#EDEDFE" opacity="1.000000" stroke="none" 
	d="
M122.484711,43.836960 
	C122.963821,43.965755 122.989098,44.205387 122.982864,45.113319 
	C122.848129,45.967110 122.744919,46.152599 122.205215,46.295845 
	C115.518417,46.201195 109.268120,46.148781 103.023773,45.808105 
	C103.020210,45.327869 103.010689,45.135891 103.010574,44.754154 
	C103.019966,44.564396 103.039200,44.184898 103.039200,44.184898 
	C103.039200,44.184898 102.990425,44.032154 102.971733,43.954193 
	C109.312317,43.900089 115.671600,43.923943 122.484711,43.836960 
z"/>
<path fill="#F7B8DE" opacity="1.000000" stroke="none" 
	d="
M103.586067,133.868225 
	C102.997475,133.578690 102.828125,133.362030 102.450905,133.055099 
	C102.067780,132.623276 102.109352,132.348587 103.085861,132.051483 
	C109.807571,131.990799 115.847755,131.990799 122.434944,131.990799 
	C122.434944,125.130264 122.434944,119.045486 122.526627,112.915878 
	C122.618317,112.871056 122.819359,112.906380 123.196655,112.944321 
	C124.079521,113.001045 124.585083,113.019836 125.055222,113.503220 
	C124.979782,119.946739 124.939766,125.925667 124.899750,131.904602 
	C124.587753,132.453934 124.275764,133.003250 123.881233,133.881470 
	C123.448532,134.256577 123.098381,134.302780 122.481583,134.309814 
	C116.157257,134.151245 110.099571,134.031876 103.586067,133.868225 
z"/>
<path fill="#334121" opacity="1.000000" stroke="none" 
	d="
M123.455139,135.133026 
	C124.155685,139.152130 124.582138,143.454620 124.878250,147.766083 
	C125.002480,149.574905 124.850655,151.402710 124.701645,153.687317 
	C124.004242,153.340866 122.942749,152.534454 122.933571,151.716232 
	C122.872650,146.285583 123.037193,140.852386 123.455139,135.133026 
z"/>
<path fill="#172B23" opacity="1.000000" stroke="none" 
	d="
M79.190536,44.752197 
	C79.245094,44.561596 79.299660,44.370991 79.625786,44.044647 
	C86.282867,43.940178 92.668381,43.971447 99.518646,43.957870 
	C100.450249,44.273670 100.917107,44.634319 101.722916,45.071404 
	C102.061867,45.147842 102.105988,45.027710 101.970032,45.345406 
	C101.438240,45.898331 101.042412,46.133560 100.210892,46.314861 
	C93.495163,46.289131 87.215118,46.317326 80.748344,46.109280 
	C80.104584,45.499428 79.647560,45.125813 79.190536,44.752197 
z"/>
<path fill="#1C1299" opacity="1.000000" stroke="none" 
	d="
M56.303986,68.769638 
	C56.694954,68.155014 56.982727,68.066910 57.610870,68.516129 
	C57.998360,75.350128 58.075020,81.743156 58.076744,88.301361 
	C58.001808,88.466537 57.839706,88.791061 57.621605,88.903801 
	C56.996075,89.277733 56.588642,89.538918 56.181206,89.800102 
	C55.995392,89.530174 55.880302,89.232872 55.846733,88.667999 
	C55.962093,82.018478 56.066669,75.609138 56.303986,68.769638 
z"/>
<path fill="#E92FA9" opacity="1.000000" stroke="none" 
	d="
M125.373253,131.955063 
	C124.939766,125.925667 124.979782,119.946739 125.515724,113.493454 
	C132.290802,113.019730 138.569946,113.020348 144.849091,113.020973 
	C144.979446,117.884621 145.109802,122.748268 145.587799,127.882828 
	C145.956787,129.190140 145.978165,130.226547 145.967041,131.652557 
	C139.238632,132.029938 132.542694,132.017731 125.373253,131.955063 
z"/>
<path fill="#1C2E4A" opacity="1.000000" stroke="none" 
	d="
M147.144958,87.523964 
	C146.668747,88.706383 146.119370,89.427391 144.834991,90.229340 
	C137.796799,90.227898 131.493607,90.145531 125.085983,89.831482 
	C124.730476,89.378418 124.479378,89.157043 124.153946,88.744484 
	C124.158607,88.265602 124.339958,88.075699 125.114777,88.018158 
	C131.979721,88.052734 138.353546,88.052734 145.006943,88.052734 
	C145.006943,81.008812 145.006943,74.743393 145.081940,68.325714 
	C145.156921,68.173462 145.447937,67.998741 145.447937,67.998741 
	C145.877747,68.156021 146.307541,68.313301 146.907990,68.620316 
	C147.076370,74.867546 147.074081,80.965050 147.144958,87.523964 
z"/>
<path fill="#DC94D7" opacity="1.000000" stroke="none" 
	d="
M144.990921,112.729156 
	C138.569946,113.020348 132.290802,113.019730 125.551147,113.028870 
	C124.585083,113.019836 124.079521,113.001045 123.301170,112.624542 
	C123.436378,111.745277 123.844360,111.223724 124.405838,110.715378 
	C124.559334,110.728592 124.864677,110.778725 125.128685,111.130119 
	C131.084183,111.650780 136.775833,111.906197 142.467026,111.896446 
	C143.320511,111.894989 144.171906,110.651924 145.019562,109.994728 
	C145.014832,110.006226 144.993515,110.020706 144.993515,110.020706 
	C145.203262,110.032745 145.413025,110.044785 145.935257,110.101486 
	C145.876053,110.909874 145.504395,111.673599 144.990921,112.729156 
z"/>
<path fill="#F3C235" opacity="1.000000" stroke="none" 
	d="
M144.585785,46.110123 
	C145.068802,52.499531 145.084930,58.824776 145.060486,65.623825 
	C145.019928,66.097633 145.006195,66.026558 144.568817,66.002632 
	C137.716614,65.931198 131.301804,65.883690 124.896545,65.378235 
	C124.970795,58.598198 125.035477,52.276127 125.100166,45.954052 
	C131.439743,45.984684 137.779312,46.015316 144.585785,46.110123 
z"/>
<path fill="#344221" opacity="1.000000" stroke="none" 
	d="
M124.972626,45.729763 
	C125.035477,52.276127 124.970795,58.598198 124.665390,65.476303 
	C124.301628,66.327568 124.178589,66.622818 123.798561,67.000359 
	C123.363091,67.102661 123.184601,67.122665 122.943634,66.668533 
	C122.801338,59.575623 122.721527,52.956852 122.641716,46.338085 
	C122.744919,46.152599 122.848129,45.967110 123.027252,45.472023 
	C123.103165,45.162434 123.579277,45.041752 123.809708,44.955891 
	C124.308449,45.081844 124.576759,45.293659 124.972626,45.729763 
z"/>
<path fill="#E8CBF1" opacity="1.000000" stroke="none" 
	d="
M102.744400,44.168579 
	C103.039200,44.184898 103.019966,44.564396 102.786148,44.768562 
	C102.552322,44.972729 102.105988,45.027710 102.105988,45.027710 
	C102.105988,45.027710 102.061867,45.147842 102.001534,45.169510 
	C102.110664,44.844872 102.280136,44.498566 102.744400,44.168579 
z"/>
<path fill="#FDF7E8" opacity="1.000000" stroke="none" 
	d="
M124.055542,66.918060 
	C124.178589,66.622818 124.301628,66.327568 124.655823,65.934258 
	C131.301804,65.883690 137.716614,65.931198 144.604675,65.997742 
	C145.196854,66.171005 145.315781,66.325226 145.050735,66.747208 
	C144.341949,67.112228 144.121964,67.320282 143.589294,67.878952 
	C137.101913,68.068436 131.032013,68.018097 124.893143,67.733360 
	C124.638153,67.212486 124.381950,67.018852 124.055542,66.918060 
z"/>
<path fill="#E0D7D4" opacity="1.000000" stroke="none" 
	d="
M144.006805,67.639137 
	C144.121964,67.320282 144.341949,67.112228 144.901230,66.998184 
	C145.179062,67.153542 145.222443,67.325691 145.356888,67.748291 
	C145.447937,67.998741 145.156921,68.173462 144.884933,68.052521 
	C144.410904,67.834106 144.208847,67.736626 144.006805,67.639137 
z"/>
<path fill="#2E34F5" opacity="1.000000" stroke="none" 
	d="
M56.169624,89.998352 
	C56.588642,89.538918 56.996075,89.277733 57.789547,89.343094 
	C64.863304,89.896530 71.551018,90.123398 78.317291,90.518936 
	C78.395851,90.687599 78.592850,91.003311 78.424988,91.441772 
	C78.134712,98.049133 78.012306,104.218033 77.889893,110.386925 
	C71.542915,110.330559 65.195938,110.274193 58.389130,110.095375 
	C57.649448,103.592430 57.369606,97.211945 56.677231,90.705307 
	C56.264694,90.579163 56.158043,90.196594 56.169624,89.998352 
z"/>
<path fill="#F3C33A" opacity="1.000000" stroke="none" 
	d="
M77.610428,112.951202 
	C78.079292,119.130760 78.079292,125.227509 78.079292,132.109558 
	C71.538979,132.109558 65.310928,132.109558 58.627007,132.103485 
	C58.107216,126.046982 58.043301,119.996559 57.934090,113.481506 
	C64.306389,112.967377 70.723976,112.917885 77.610428,112.951202 
z"/>
<path fill="#C6C8FD" opacity="1.000000" stroke="none" 
	d="
M79.408493,131.995697 
	C79.048958,125.935501 78.971008,119.918495 78.850601,113.434120 
	C78.808128,112.966759 78.679810,112.530151 78.867264,112.024254 
	C79.545929,110.997925 80.037132,110.477486 80.945099,110.079300 
	C87.559753,110.301682 93.757652,110.401825 99.951202,110.716217 
	C100.228249,111.222618 100.509621,111.514778 100.791000,111.806931 
	C100.791000,111.806931 100.904373,112.278381 100.420258,112.532120 
	C93.670387,112.785866 87.404640,112.785866 80.809807,112.785866 
	C80.809807,119.621803 80.809807,125.743629 80.809807,131.865463 
	C80.436569,131.923264 80.063324,131.981064 79.408493,131.995697 
z"/>
<path fill="#172A58" opacity="1.000000" stroke="none" 
	d="
M80.528336,109.957054 
	C80.037132,110.477486 79.545929,110.997925 78.829330,111.799896 
	C78.359894,111.676186 78.115852,111.270920 77.880859,110.626297 
	C78.012306,104.218033 78.134712,98.049133 78.714584,91.460861 
	C79.553085,91.118828 79.934120,91.196167 80.340874,91.714935 
	C80.420509,98.089928 80.474419,104.023491 80.528336,109.957054 
z"/>
<path fill="#3237F4" opacity="1.000000" stroke="none" 
	d="
M81.287392,131.936935 
	C80.809807,125.743629 80.809807,119.621803 80.809807,112.785866 
	C87.404640,112.785866 93.670387,112.785866 100.393509,112.773087 
	C100.753426,119.011986 100.655991,125.263664 100.269913,131.834137 
	C93.909164,132.104767 87.837074,132.056580 81.287392,131.936935 
z"/>
<path fill="#E932AB" opacity="1.000000" stroke="none" 
	d="
M122.434944,112.960709 
	C122.434944,119.045486 122.434944,125.130264 122.434944,131.990799 
	C115.847755,131.990799 109.807571,131.990799 103.285706,131.937164 
	C102.834969,125.757477 102.865906,119.631439 103.385727,113.083832 
	C110.061386,112.761742 116.248169,112.861221 122.434944,112.960709 
z"/>
<path fill="#1F17B6" opacity="1.000000" stroke="none" 
	d="
M122.526627,112.915878 
	C116.248169,112.861221 110.061386,112.761742 103.405182,112.585037 
	C102.909515,111.878754 102.883293,111.249687 102.771866,110.266792 
	C102.686653,109.912964 102.783997,109.858788 103.266785,109.913803 
	C110.097099,109.960777 116.444611,109.952736 123.057571,110.023682 
	C123.632797,110.302498 123.942566,110.502327 124.252335,110.702164 
	C123.844360,111.223724 123.436378,111.745277 122.923874,112.586609 
	C122.819359,112.906380 122.618317,112.871056 122.526627,112.915878 
z"/>
<path fill="#FAE6C4" opacity="1.000000" stroke="none" 
	d="
M100.942413,111.591843 
	C100.509621,111.514778 100.228249,111.222618 100.048615,110.213821 
	C100.149651,103.305313 100.148956,97.113449 100.310562,90.825500 
	C100.472862,90.729416 100.843643,90.659935 101.091446,90.784798 
	C101.701904,90.963608 102.064545,91.017548 102.499893,91.528107 
	C102.643059,97.942741 102.713531,103.900764 102.783997,109.858788 
	C102.783997,109.858788 102.686653,109.912964 102.662376,109.965240 
	C102.123344,110.470589 101.608589,110.923676 100.942413,111.591843 
z"/>
<path fill="#EA37AD" opacity="1.000000" stroke="none" 
	d="
M58.151676,88.136185 
	C58.075020,81.743156 57.998360,75.350128 57.841324,68.494522 
	C64.326263,68.060173 70.891586,68.088387 77.873772,68.619949 
	C78.290642,75.317986 78.290642,81.512680 78.290642,88.136185 
	C70.972893,88.136185 64.562286,88.136185 58.151676,88.136185 
z"/>
<path fill="#E932AB" opacity="1.000000" stroke="none" 
	d="
M58.383904,66.006546 
	C57.954792,59.680790 58.001915,53.350956 58.081562,46.560955 
	C64.482269,46.145103 70.850449,46.189415 77.709198,46.718410 
	C78.268219,53.438229 78.336670,59.673363 78.405113,65.908493 
	C71.890121,65.939819 65.375130,65.971138 58.383904,66.006546 
z"/>
<path fill="#EEC4E7" opacity="1.000000" stroke="none" 
	d="
M58.076744,88.301361 
	C64.562286,88.136185 70.972893,88.136185 78.290642,88.136185 
	C78.290642,81.512680 78.290642,75.317986 78.366615,68.679779 
	C78.661217,67.700806 78.879837,67.165337 79.463791,66.348335 
	C80.183426,65.987206 80.537727,65.907616 80.931442,65.925339 
	C80.970856,66.022644 81.021729,66.226158 81.017006,66.534637 
	C81.004822,67.254211 80.997368,67.665298 80.788437,68.425171 
	C80.545036,75.220451 80.503113,81.666939 80.237411,88.340553 
	C79.422005,89.161873 78.830368,89.756073 78.238731,90.350266 
	C71.551018,90.123398 64.863304,89.896530 58.007645,89.230362 
	C57.839706,88.791061 58.001808,88.466537 58.076744,88.301361 
z"/>
<path fill="#E85122" opacity="1.000000" stroke="none" 
	d="
M80.892036,65.828033 
	C80.537727,65.907616 80.183426,65.987206 79.557762,66.069641 
	C79.286407,66.072487 78.852913,65.934509 78.629013,65.921501 
	C78.336670,59.673363 78.268219,53.438229 78.186707,46.755058 
	C78.403992,45.966202 78.634354,45.625381 79.027626,45.018379 
	C79.647560,45.125813 80.104584,45.499428 80.759094,46.552940 
	C80.935074,53.431240 80.913559,59.629635 80.892036,65.828033 
z"/>
<path fill="#F3C235" opacity="1.000000" stroke="none" 
	d="
M125.190399,90.063156 
	C131.493607,90.145531 137.796799,90.227898 144.552277,90.422577 
	C145.004272,96.716606 145.003983,102.898338 144.998596,109.550385 
	C144.993515,110.020706 145.014832,110.006226 144.549957,110.031509 
	C137.751007,110.035156 131.416962,110.013527 125.013794,109.528397 
	C125.026588,102.730980 125.108498,96.397072 125.190399,90.063156 
z"/>
<path fill="#2D33F3" opacity="1.000000" stroke="none" 
	d="
M122.205215,46.295845 
	C122.721527,52.956852 122.801338,59.575623 122.936790,66.633980 
	C122.992424,67.073570 123.059868,67.052238 122.689087,66.839859 
	C115.840111,66.374756 109.361923,66.122040 102.858582,65.409683 
	C102.894897,58.665485 102.956352,52.380924 103.017815,46.096367 
	C109.268120,46.148781 115.518417,46.201195 122.205215,46.295845 
z"/>
<path fill="#CAC9F3" opacity="1.000000" stroke="none" 
	d="
M103.023773,45.808105 
	C102.956352,52.380924 102.894897,58.665485 102.598763,65.511780 
	C101.995674,66.072807 101.627258,66.072098 101.246567,66.083664 
	C101.234291,66.095940 101.239449,66.132309 101.096245,65.674377 
	C100.850891,58.933899 100.748741,52.651344 100.646591,46.368790 
	C101.042412,46.133560 101.438240,45.898331 101.970032,45.345406 
	C102.105988,45.027710 102.552322,44.972729 102.776749,44.958321 
	C103.010689,45.135891 103.020210,45.327869 103.023773,45.808105 
z"/>
<path fill="#EFC038" opacity="1.000000" stroke="none" 
	d="
M100.210892,46.314865 
	C100.748741,52.651344 100.850891,58.933899 100.613655,65.616104 
	C93.856758,66.085884 87.439240,66.156021 81.021729,66.226166 
	C81.021729,66.226158 80.970856,66.022644 80.931442,65.925339 
	C80.913559,59.629635 80.935074,53.431240 80.945831,46.789181 
	C87.215118,46.317326 93.495163,46.289131 100.210892,46.314865 
z"/>
<path fill="#2D33F6" opacity="1.000000" stroke="none" 
	d="
M143.589294,67.878952 
	C144.208847,67.736626 144.410904,67.834106 144.809937,68.204773 
	C145.006943,74.743393 145.006943,81.008812 145.006943,88.052734 
	C138.353546,88.052734 131.979721,88.052734 125.201180,87.554825 
	C124.851685,80.693863 124.906906,74.330811 124.962128,67.967758 
	C131.032013,68.018097 137.101913,68.068436 143.589294,67.878952 
z"/>
<path fill="#E0D7D4" opacity="1.000000" stroke="none" 
	d="
M124.893143,67.733360 
	C124.906906,74.330811 124.851685,80.693863 124.710068,87.520248 
	C124.339958,88.075699 124.158607,88.265602 124.005592,89.086349 
	C123.515190,89.883064 123.098793,90.146744 122.501617,90.335770 
	C122.320831,90.261124 121.949905,90.136948 121.676559,89.829483 
	C115.577927,89.178864 109.752640,88.835701 104.386322,88.369675 
	C110.705452,88.246819 116.565628,88.246819 122.580627,88.246819 
	C122.580627,81.090057 122.580627,74.849541 122.722473,68.369553 
	C122.929504,67.770798 122.994690,67.411522 123.059875,67.052238 
	C123.059868,67.052238 122.992424,67.073570 122.999268,67.108124 
	C123.184601,67.122665 123.363091,67.102661 123.798553,67.000351 
	C124.381950,67.018852 124.638153,67.212486 124.893143,67.733360 
z"/>
<path fill="#344221" opacity="1.000000" stroke="none" 
	d="
M122.682404,90.410416 
	C123.098793,90.146744 123.515190,89.883064 124.079933,89.277527 
	C124.479378,89.157043 124.730476,89.378418 125.085983,89.831482 
	C125.108498,96.397072 125.026588,102.730980 124.914841,109.712875 
	C124.884995,110.360855 124.864677,110.778725 124.864677,110.778725 
	C124.864677,110.778725 124.559334,110.728592 124.405838,110.715378 
	C123.942566,110.502327 123.632797,110.302498 123.074341,109.562431 
	C122.777908,102.818268 122.730156,96.614342 122.682404,90.410416 
z"/>
<path fill="#F7E8C1" opacity="1.000000" stroke="none" 
	d="
M125.128685,111.130119 
	C124.864677,110.778725 124.884995,110.360855 124.983948,110.176376 
	C131.416962,110.013527 137.751007,110.035156 144.554672,110.020004 
	C144.171906,110.651924 143.320511,111.894989 142.467026,111.896446 
	C136.775833,111.906197 131.084183,111.650780 125.128685,111.130119 
z"/>
<path fill="#565919" opacity="1.000000" stroke="none" 
	d="
M78.317291,90.518936 
	C78.830368,89.756073 79.422005,89.161873 80.415283,88.422554 
	C80.816917,88.277435 81.172623,88.442581 81.483688,88.687889 
	C88.086891,89.238220 94.379021,89.543243 100.711716,90.051727 
	C100.752289,90.255180 100.843643,90.659935 100.843643,90.659935 
	C100.843643,90.659935 100.472862,90.729416 99.832962,90.746521 
	C92.900429,90.933586 86.607788,91.103554 80.315155,91.273514 
	C79.934120,91.196167 79.553085,91.118828 78.882446,91.022400 
	C78.592850,91.003311 78.395851,90.687599 78.317291,90.518936 
z"/>
<path fill="#EFC038" opacity="1.000000" stroke="none" 
	d="
M80.340874,91.714935 
	C86.607788,91.103554 92.900429,90.933586 99.670654,90.842606 
	C100.148956,97.113449 100.149651,103.305313 100.052948,109.999565 
	C93.757652,110.401825 87.559753,110.301682 80.945099,110.079300 
	C80.474419,104.023491 80.420509,98.089928 80.340874,91.714935 
z"/>
<path fill="#2E34F6" opacity="1.000000" stroke="none" 
	d="
M122.501617,90.335770 
	C122.730156,96.614342 122.777908,102.818268 122.808899,109.483444 
	C116.444611,109.952736 110.097099,109.960777 103.266785,109.913803 
	C102.713531,103.900764 102.643059,97.942741 102.990089,91.368774 
	C109.588356,90.547531 115.769135,90.342239 121.949905,90.136948 
	C121.949905,90.136948 122.320831,90.261124 122.501617,90.335770 
z"/>
<path fill="#BEC0FB" opacity="1.000000" stroke="none" 
	d="
M121.676559,89.829483 
	C115.769135,90.342239 109.588356,90.547531 102.917389,90.912155 
	C102.064545,91.017548 101.701904,90.963608 101.091446,90.784798 
	C100.843643,90.659935 100.752289,90.255180 100.894348,89.841591 
	C101.594543,88.939583 102.152679,88.451157 103.009933,88.106705 
	C103.515152,88.331306 103.721252,88.411919 103.927361,88.492538 
	C109.752640,88.835701 115.577927,89.178864 121.676559,89.829483 
z"/>
<path fill="#3137F2" opacity="1.000000" stroke="none" 
	d="
M81.172623,88.442581 
	C81.172623,88.442581 80.816917,88.277435 80.639053,88.195435 
	C80.503113,81.666939 80.545036,75.220451 81.253967,68.486397 
	C88.132393,68.232117 94.343819,68.265396 100.646004,68.489571 
	C100.736755,68.680458 100.871147,69.081253 100.658760,69.415947 
	C100.446373,75.757614 100.446373,81.764595 100.446373,88.442581 
	C93.310112,88.442581 87.241371,88.442581 81.172623,88.442581 
z"/>
<path fill="#F6EDF4" opacity="1.000000" stroke="none" 
	d="
M100.555252,68.298683 
	C94.343819,68.265396 88.132393,68.232117 81.455429,68.137619 
	C80.997368,67.665298 81.004822,67.254211 81.017006,66.534637 
	C87.439240,66.156021 93.856758,66.085884 100.756859,66.074028 
	C101.239449,66.132309 101.234291,66.095940 101.144371,66.461258 
	C100.888054,67.317276 100.721657,67.807976 100.555252,68.298683 
z"/>
<path fill="#374315" opacity="1.000000" stroke="none" 
	d="
M100.646004,68.489571 
	C100.721657,67.807976 100.888054,67.317276 101.156647,66.448975 
	C101.627258,66.072098 101.995674,66.072807 102.623909,65.971420 
	C109.361923,66.122040 115.840111,66.374756 122.689087,66.839859 
	C122.994690,67.411522 122.929504,67.770798 122.284790,68.331772 
	C115.277321,68.702049 108.849380,68.870636 102.163963,69.063431 
	C101.561371,69.085518 101.216263,69.083389 100.871147,69.081253 
	C100.871147,69.081253 100.736755,68.680458 100.646004,68.489571 
z"/>
<path fill="#EFC037" opacity="1.000000" stroke="none" 
	d="
M102.421440,69.039215 
	C108.849380,68.870636 115.277321,68.702049 122.142944,68.571251 
	C122.580627,74.849541 122.580627,81.090057 122.580627,88.246819 
	C116.565628,88.246819 110.705452,88.246819 104.386322,88.369675 
	C103.721252,88.411919 103.515152,88.331306 102.995209,87.641045 
	C102.594727,81.034004 102.508087,75.036613 102.421440,69.039215 
z"/>
<path fill="#152A45" opacity="1.000000" stroke="none" 
	d="
M102.163963,69.063431 
	C102.508087,75.036613 102.594727,81.034004 102.696091,87.497070 
	C102.152679,88.451157 101.594543,88.939583 100.853775,89.638138 
	C94.379021,89.543243 88.086891,89.238220 81.483688,88.687889 
	C87.241371,88.442581 93.310112,88.442581 100.446373,88.442581 
	C100.446373,81.764595 100.446373,75.757614 100.658760,69.415947 
	C101.216263,69.083389 101.561371,69.085518 102.163963,69.063431 
z"/>
</svg>